<svg xmlns="http://www.w3.org/2000/svg" width="93.125" height="107.398" viewBox="0 0 93.125 107.398">
  <g id="Grupo_3222" data-name="Grupo 3222" transform="translate(-1266.565 -1224.628)">
    <g id="Grupo_3194" data-name="Grupo 3194" transform="translate(1267.065 1225.128)">
      <path id="Trazado_4258" data-name="Trazado 4258" d="M0,0H92.125V106.4H0Z" transform="translate(92.125 106.398) rotate(180)" fill="none" stroke="#001f84" stroke-width="1"/>
      <path id="Trazado_4259" data-name="Trazado 4259" d="M33.513,22H24v9.752m9.513,81.86H24V103.86M93.561,22h9.513v9.752m-9.513,81.86h9.513V103.86" transform="translate(-17.922 -14.122)" fill="none" stroke="#001f84" stroke-width="1"/>
    </g>
    <g id="Grupo_3195" data-name="Grupo 3195" transform="translate(1292.275 1245.021)">
      <path id="Trazado_4149" data-name="Trazado 4149" d="M793.707,236.524l-.879.879m17.576-.879-.879.879m-16.258-4.614v4.174h16.7v-4.174" transform="translate(-792.389 -165.12)" fill="none" stroke="#001f84" stroke-width="1"/>
      <path id="Trazado_4150" data-name="Trazado 4150" d="M793.517,144.763V114.957m0,0-1.517,1.5m1.517-1.5,1.516,1.5" transform="translate(-792 -109.684)" fill="none" stroke="#001f84" stroke-width="1"/>
      <path id="Trazado_4151" data-name="Trazado 4151" d="M803.392,139.2V105m0,0-1.517,1.5m1.517-1.5,1.517,1.5" transform="translate(-796.646 -105)" fill="none" stroke="#001f84" stroke-width="1"/>
      <path id="Trazado_4152" data-name="Trazado 4152" d="M813.271,139.2V105m0,0-1.517,1.5m1.517-1.5,1.517,1.5" transform="translate(-801.293 -105)" fill="none" stroke="#001f84" stroke-width="1"/>
      <path id="Trazado_4153" data-name="Trazado 4153" d="M823.146,144.763V114.957m0,0-1.517,1.5m1.517-1.5,1.517,1.5" transform="translate(-805.939 -109.684)" fill="none" stroke="#001f84" stroke-width="1"/>
      <g id="Grupo_3181" data-name="Grupo 3181" transform="translate(1.059 5.825)">
        <path id="Trazado_4160" data-name="Trazado 4160" d="M855.994,157.206c0,1.334-3.738,2.417-8.348,2.417s-8.349-1.082-8.349-2.417m16.7,0c0-1.335-3.738-2.417-8.348-2.417s-8.349,1.082-8.349,2.417m16.7,0v3.955c0,1.335-3.738,2.417-8.348,2.417S839.3,162.5,839.3,161.16v-3.955" transform="translate(-815.311 -134.249)" fill="none" stroke="#001f84" stroke-width="0.5"/>
        <path id="Trazado_4161" data-name="Trazado 4161" d="M855.994,138.12c0,1.334-3.738,2.417-8.348,2.417s-8.349-1.082-8.349-2.417m16.7,0c0-1.335-3.738-2.417-8.348-2.417s-8.349,1.082-8.349,2.417m16.7,0v3.955c0,1.335-3.738,2.417-8.348,2.417s-8.349-1.082-8.349-2.417V138.12" transform="translate(-815.311 -125.27)" fill="none" stroke="#001f84" stroke-width="0.5"/>
        <path id="Trazado_4162" data-name="Trazado 4162" d="M810.7,197.12c0,1.334-3.738,2.417-8.349,2.417S794,198.454,794,197.12m16.7,0c0-1.335-3.738-2.417-8.349-2.417S794,195.785,794,197.12m16.7,0v3.955c0,1.335-3.738,2.417-8.349,2.417S794,202.409,794,201.074V197.12" transform="translate(-794 -153.027)" fill="none" stroke="#001f84" stroke-width="0.5"/>
        <path id="Trazado_4163" data-name="Trazado 4163" d="M855.994,176.288c0,1.334-3.738,2.417-8.348,2.417s-8.349-1.082-8.349-2.417m16.7,0c0-1.335-3.738-2.417-8.348-2.417s-8.349,1.082-8.349,2.417m16.7,0v3.955c0,1.335-3.738,2.417-8.348,2.417s-8.349-1.082-8.349-2.417v-3.955" transform="translate(-815.311 -143.226)" fill="none" stroke="#001f84" stroke-width="1"/>
        <path id="Trazado_4164" data-name="Trazado 4164" d="M855.994,118.417c0,1.334-3.738,2.417-8.348,2.417s-8.349-1.082-8.349-2.417m16.7,0c0-1.335-3.738-2.417-8.348-2.417s-8.349,1.082-8.349,2.417m16.7,0v3.955c0,1.334-3.738,2.417-8.348,2.417s-8.349-1.082-8.349-2.417v-3.955" transform="translate(-815.311 -116)" fill="none" stroke="#001f84" stroke-width="1"/>
        <path id="Trazado_4165" data-name="Trazado 4165" d="M810.7,177.417c0,1.334-3.738,2.417-8.349,2.417S794,178.751,794,177.417m16.7,0c0-1.335-3.738-2.417-8.349-2.417S794,176.082,794,177.417m16.7,0v3.955c0,1.334-3.738,2.417-8.349,2.417S794,182.706,794,181.371v-3.955" transform="translate(-794 -143.757)" fill="none" stroke="#001f84" stroke-width="1"/>
        <path id="Trazado_4166" data-name="Trazado 4166" d="M810.7,216.417c0,1.334-3.738,2.417-8.349,2.417S794,217.751,794,216.417m16.7,0c0-1.335-3.738-2.417-8.349-2.417S794,215.082,794,216.417m16.7,0v3.955c0,1.334-3.738,2.417-8.349,2.417S794,221.706,794,220.371v-3.955" transform="translate(-794 -162.105)" fill="none" stroke="#001f84" stroke-width="1"/>
        <path id="Trazado_4167" data-name="Trazado 4167" d="M855.994,196.417c0,1.334-3.738,2.417-8.348,2.417s-8.349-1.082-8.349-2.417m16.7,0c0-1.335-3.738-2.417-8.348-2.417s-8.349,1.082-8.349,2.417m16.7,0v3.955c0,1.334-3.738,2.417-8.348,2.417s-8.349-1.082-8.349-2.417v-3.955" transform="translate(-815.311 -152.696)" fill="none" stroke="#001f84" stroke-width="1"/>
        <path id="Trazado_4168" data-name="Trazado 4168" d="M855.994,216.546c0,1.334-3.738,2.417-8.348,2.417s-8.349-1.082-8.349-2.417m16.7,0c0-1.335-3.738-2.417-8.348-2.417s-8.349,1.082-8.349,2.417m16.7,0V220.5c0,1.334-3.738,2.417-8.348,2.417s-8.349-1.082-8.349-2.417v-3.955" transform="translate(-815.311 -162.166)" fill="none" stroke="#001f84" stroke-width="1"/>
      </g>
      <path id="Trazado_4169" data-name="Trazado 4169" d="M874.98,158.034h3.3m0,0-.549-.55m.549.55.549.549m-.549-.549v4.394m-3.3,0h3.3m0,0-.549-.549m.549.549.549.55" transform="translate(-831.039 -129.692)" fill="none" stroke="#001f84" stroke-width="1"/>
    </g>
  </g>
</svg>
