<svg xmlns="http://www.w3.org/2000/svg" width="93.212" height="107.499" viewBox="0 0 93.212 107.499">
  <g id="Grupo_3202" data-name="Grupo 3202" transform="translate(0.5 0.5)">
    <g id="Grupo_3191" data-name="Grupo 3191">
      <path id="Trazado_4253" data-name="Trazado 4253" d="M33.614,22H24v9.691m9.614,81.342H24v-9.691M94.306,22h9.614v9.691m-9.614,81.342h9.614v-9.691" transform="translate(-17.398 -14.18)" fill="none" stroke="#001f84" stroke-width="1"/>
      <path id="Trazado_4254" data-name="Trazado 4254" d="M0,0H92.212V106.5H0Z" transform="translate(92.212 106.499) rotate(180)" fill="none" stroke="#001f84" stroke-width="1"/>
      <path id="Trazado_4256" data-name="Trazado 4256" d="M68.82,139.418,31.1,121.6a2.962,2.962,0,0,0-2.371-.069l-27.3,11a.583.583,0,0,0-.369.506M68.789,140.5l-15.768,6.354M1.06,133.038a.585.585,0,0,0,.338.579L39.12,151.434a2.959,2.959,0,0,0,2.371.069l11.53-4.646M1.06,133.038v1.434m0,0a.587.587,0,0,1,.369-.594l27.3-11a2.961,2.961,0,0,1,2.371.069l2.327,1.1M1.06,134.472a.582.582,0,0,0,.338.491l2.177,1.029L39.12,152.78a2.961,2.961,0,0,0,2.371.069l1.907-.769,25.391-10.232a.592.592,0,0,0,.031-1.085L33.425,124.045M12.9,127.908l34.161,16.135m5.956,2.813-5.956-2.813m0,0,17.024-6.86-1.537.619m-44.613-7.516,15.486-6.241M31.257,93.511v22.8a2.961,2.961,0,0,0,1.7,2.677l33.727,15.93a.592.592,0,0,0,.845-.536v-22.8a2.961,2.961,0,0,0-1.7-2.677L32.1,92.975A.592.592,0,0,0,31.257,93.511Z" transform="translate(7.191 -68.801)" fill="none" stroke="#001f84" stroke-width="0.5"/>
      <path id="Trazado_4257" data-name="Trazado 4257" d="M31.049,84.072a.6.6,0,0,1,.135-.053m-.135.053-1.123.438m1.123-.438.135-.053m0,0a.585.585,0,0,1,.4.039L69.16,101.806a2.96,2.96,0,0,1,1.7,2.677v30.053a.591.591,0,0,1-.414.565m0,0-1.285.528a1,1,0,0,0,.381-.341.59.59,0,0,0,.06-.261V104.974a2.961,2.961,0,0,0-1.7-2.677L30.326,84.549l-.044-.019a.592.592,0,0,0-.8.554v30.053a2.957,2.957,0,0,0,.3,1.306M70.442,135.1l.075-.03M1.06,128.164a.583.583,0,0,1,.369-.506l27.3-11a2.971,2.971,0,0,1,1.058-.214M1.06,128.164a.585.585,0,0,0,.338.579L39.12,146.56a2.96,2.96,0,0,0,2.371.069l3.832-1.544,7.7-3.1,15.768-6.354a.583.583,0,0,0,.368-.491m-68.1-6.973V129.6a.582.582,0,0,0,.338.491L39.12,147.906a2.961,2.961,0,0,0,2.371.069l27.3-11a.583.583,0,0,0,.368-.492v-1.345m0,0a.586.586,0,0,0-.336-.594l-4.731-2.234L34.816,118.465,31.1,116.727a2.963,2.963,0,0,0-1.313-.283M22.43,129.294l-7.921,3.192a.477.477,0,0,0-.025.874l13.266,6.266a2.384,2.384,0,0,0,1.91.056l7.921-3.192a.477.477,0,0,0,.025-.874L24.341,129.35A2.386,2.386,0,0,0,22.43,129.294Z" transform="translate(7.191 -63.926)" fill="none" stroke="#001f84" stroke-width="0.5"/>
      <g id="Grupo_3226" data-name="Grupo 3226" transform="matrix(0.998, 0.07, -0.07, 0.998, 52.661, 39.078)">
        <path id="Trazado_218" data-name="Trazado 218" d="M18.308,15.161a1.67,1.67,0,1,1-1.623,1.669,1.647,1.647,0,0,1,1.623-1.669" transform="translate(-12.873 -15.161)" fill="#001f84"/>
        <path id="Trazado_219" data-name="Trazado 219" d="M0,6.957V5.48H1.84q.011-.557.011-1.113t-.005-.99q0-.434-.016-.615A1.434,1.434,0,0,0,1.621,2a.944.944,0,0,0-.562-.364V0A3.118,3.118,0,0,1,3.178.83a3.356,3.356,0,0,1,.728,2.145q.01.247.016.915t0,1.5q-.005.829-.037,1.569Z" transform="translate(0 2.292)" fill="#001f84"/>
        <path id="Trazado_220" data-name="Trazado 220" d="M3.924,0V1.477H2.084q-.011.557-.011,1.113t.005.99q0,.434.016.615a1.434,1.434,0,0,0,.209.76.944.944,0,0,0,.562.364V6.957a3.118,3.118,0,0,1-2.119-.83A3.356,3.356,0,0,1,.018,3.982Q.008,3.735,0,3.066t0-1.5Q.008.739.04,0Z" transform="translate(4.893 4.833)" fill="#001f84"/>
      </g>
    </g>
  </g>
</svg>
