<svg xmlns="http://www.w3.org/2000/svg" width="92.983" height="107.234" viewBox="0 0 92.983 107.234">
  <g id="Grupo_3224" data-name="Grupo 3224" transform="translate(-991.116 -1327.004)">
    <path id="Trazado_4201" data-name="Trazado 4201" d="M32,56H42v1.951H34.2V66H32Z" transform="translate(977.72 1303.161)" fill="none" stroke="#001f84" stroke-width="0.8"/>
    <path id="Trazado_4202" data-name="Trazado 4202" d="M32,129.5H42v-1.951H34.2V119.5H32Z" transform="translate(977.72 1270.636)" fill="none" stroke="#001f84" stroke-width="0.8"/>
    <path id="Trazado_4203" data-name="Trazado 4203" d="M138.5,56h-10v1.951h7.8V66h2.2Z" transform="translate(928.294 1303.161)" fill="none" stroke="#001f84" stroke-width="0.8"/>
    <path id="Trazado_4204" data-name="Trazado 4204" d="M138.5,129.5h-10v-1.951h7.8V119.5h2.2Z" transform="translate(928.294 1270.636)" fill="none" stroke="#001f84" stroke-width="0.8"/>
    <g id="Grupo_3185" data-name="Grupo 3185" transform="translate(991.616 1327.504)">
      <path id="Trazado_4227" data-name="Trazado 4227" d="M0,0H91.983V106.234H0Z" transform="translate(91.983 106.234) rotate(180)" fill="none" stroke="#001f84" stroke-width="1"/>
      <path id="Trazado_4228" data-name="Trazado 4228" d="M74.5,93.484H85.026m10.526,0H85.026m0,0V81.5m0,11.984v11.984" transform="translate(-38.224 -40.043)" fill="none" stroke="#001f84" stroke-width="1"/>
      <path id="Trazado_4229" data-name="Trazado 4229" d="M33.47,22H24v9.663m9.47,81.114H24v-9.663M93.25,22h9.47v9.663m-9.47,81.114h9.47v-9.663" transform="translate(-16.616 -14.139)" fill="none" stroke="#001f84" stroke-width="1"/>
    </g>
  </g>
</svg>
